<mxfile host="app.diagrams.net" modified="2024-07-11T07:27:10.684Z" agent="Mozilla/5.0 (Windows NT 10.0; Win64; x64) AppleWebKit/537.36 (KHTML, like Gecko) Chrome/126.0.0.0 Safari/537.36" etag="e95RjvYv3J2gePyh70Zi" version="24.6.4" type="device">
  <diagram name="페이지-1" id="5GgJ3suZmrngVTX2KaLc">
    <mxGraphModel dx="1960" dy="1749" grid="0" gridSize="10" guides="1" tooltips="1" connect="1" arrows="1" fold="1" page="0" pageScale="1" pageWidth="827" pageHeight="1169" math="0" shadow="0">
      <root>
        <mxCell id="0" />
        <mxCell id="1" parent="0" />
        <mxCell id="XtRkeNVS0C_kiaQZF2_L-6" value="학번" style="ellipse;whiteSpace=wrap;html=1;align=center;fontStyle=4;flipH=1;labelBackgroundColor=none;" vertex="1" parent="1">
          <mxGeometry x="-226" y="-179" width="100" height="40" as="geometry" />
        </mxCell>
        <mxCell id="XtRkeNVS0C_kiaQZF2_L-7" value="학생이름" style="ellipse;whiteSpace=wrap;html=1;align=center;flipH=1;labelBackgroundColor=none;" vertex="1" parent="1">
          <mxGeometry x="-116" y="-179" width="100" height="40" as="geometry" />
        </mxCell>
        <mxCell id="XtRkeNVS0C_kiaQZF2_L-9" value="학과" style="ellipse;whiteSpace=wrap;html=1;align=center;flipH=1;labelBackgroundColor=none;" vertex="1" parent="1">
          <mxGeometry x="-8" y="-179" width="100" height="40" as="geometry" />
        </mxCell>
        <mxCell id="XtRkeNVS0C_kiaQZF2_L-10" value="학년" style="ellipse;whiteSpace=wrap;html=1;align=center;flipH=1;labelBackgroundColor=none;" vertex="1" parent="1">
          <mxGeometry x="98" y="-179" width="100" height="40" as="geometry" />
        </mxCell>
        <mxCell id="XtRkeNVS0C_kiaQZF2_L-11" value="전화번호" style="ellipse;whiteSpace=wrap;html=1;align=center;flipH=1;labelBackgroundColor=none;" vertex="1" parent="1">
          <mxGeometry x="206" y="-179" width="100" height="40" as="geometry" />
        </mxCell>
        <mxCell id="XtRkeNVS0C_kiaQZF2_L-12" value="주소" style="ellipse;whiteSpace=wrap;html=1;align=center;flipH=1;labelBackgroundColor=none;" vertex="1" parent="1">
          <mxGeometry x="313" y="-179" width="100" height="40" as="geometry" />
        </mxCell>
        <mxCell id="XtRkeNVS0C_kiaQZF2_L-19" style="edgeStyle=none;curved=1;rounded=0;orthogonalLoop=1;jettySize=auto;html=1;fontSize=12;startSize=8;endSize=8;labelBackgroundColor=none;fontColor=default;" edge="1" parent="1" source="XtRkeNVS0C_kiaQZF2_L-17" target="XtRkeNVS0C_kiaQZF2_L-7">
          <mxGeometry relative="1" as="geometry" />
        </mxCell>
        <mxCell id="XtRkeNVS0C_kiaQZF2_L-20" style="edgeStyle=none;curved=1;rounded=0;orthogonalLoop=1;jettySize=auto;html=1;fontSize=12;startSize=8;endSize=8;labelBackgroundColor=none;fontColor=default;" edge="1" parent="1" source="XtRkeNVS0C_kiaQZF2_L-17" target="XtRkeNVS0C_kiaQZF2_L-9">
          <mxGeometry relative="1" as="geometry" />
        </mxCell>
        <mxCell id="XtRkeNVS0C_kiaQZF2_L-21" style="edgeStyle=none;curved=1;rounded=0;orthogonalLoop=1;jettySize=auto;html=1;fontSize=12;startSize=8;endSize=8;labelBackgroundColor=none;fontColor=default;" edge="1" parent="1" source="XtRkeNVS0C_kiaQZF2_L-17" target="XtRkeNVS0C_kiaQZF2_L-10">
          <mxGeometry relative="1" as="geometry" />
        </mxCell>
        <mxCell id="XtRkeNVS0C_kiaQZF2_L-22" style="edgeStyle=none;curved=1;rounded=0;orthogonalLoop=1;jettySize=auto;html=1;fontSize=12;startSize=8;endSize=8;labelBackgroundColor=none;fontColor=default;" edge="1" parent="1" source="XtRkeNVS0C_kiaQZF2_L-17" target="XtRkeNVS0C_kiaQZF2_L-11">
          <mxGeometry relative="1" as="geometry" />
        </mxCell>
        <mxCell id="XtRkeNVS0C_kiaQZF2_L-23" style="edgeStyle=none;curved=1;rounded=0;orthogonalLoop=1;jettySize=auto;html=1;entryX=0.5;entryY=0;entryDx=0;entryDy=0;fontSize=12;startSize=8;endSize=8;labelBackgroundColor=none;fontColor=default;" edge="1" parent="1" source="XtRkeNVS0C_kiaQZF2_L-17" target="XtRkeNVS0C_kiaQZF2_L-12">
          <mxGeometry relative="1" as="geometry" />
        </mxCell>
        <mxCell id="XtRkeNVS0C_kiaQZF2_L-17" value="학생정보" style="rounded=1;arcSize=25;whiteSpace=wrap;html=1;align=center;labelBackgroundColor=none;" vertex="1" parent="1">
          <mxGeometry x="21" y="-358" width="150" height="54" as="geometry" />
        </mxCell>
        <mxCell id="XtRkeNVS0C_kiaQZF2_L-18" style="rounded=0;orthogonalLoop=1;jettySize=auto;html=1;entryX=0.56;entryY=0.025;entryDx=0;entryDy=0;entryPerimeter=0;fontSize=12;startSize=8;endSize=8;labelBackgroundColor=none;fontColor=default;" edge="1" parent="1" source="XtRkeNVS0C_kiaQZF2_L-17" target="XtRkeNVS0C_kiaQZF2_L-6">
          <mxGeometry relative="1" as="geometry" />
        </mxCell>
        <mxCell id="XtRkeNVS0C_kiaQZF2_L-34" style="edgeStyle=none;curved=1;rounded=0;orthogonalLoop=1;jettySize=auto;html=1;fontSize=12;startSize=8;endSize=8;" edge="1" parent="1" source="XtRkeNVS0C_kiaQZF2_L-24" target="XtRkeNVS0C_kiaQZF2_L-28">
          <mxGeometry relative="1" as="geometry" />
        </mxCell>
        <mxCell id="XtRkeNVS0C_kiaQZF2_L-35" style="edgeStyle=none;curved=1;rounded=0;orthogonalLoop=1;jettySize=auto;html=1;fontSize=12;startSize=8;endSize=8;" edge="1" parent="1" source="XtRkeNVS0C_kiaQZF2_L-24" target="XtRkeNVS0C_kiaQZF2_L-29">
          <mxGeometry relative="1" as="geometry" />
        </mxCell>
        <mxCell id="XtRkeNVS0C_kiaQZF2_L-36" style="edgeStyle=none;curved=1;rounded=0;orthogonalLoop=1;jettySize=auto;html=1;entryX=0.5;entryY=0;entryDx=0;entryDy=0;fontSize=12;startSize=8;endSize=8;" edge="1" parent="1" source="XtRkeNVS0C_kiaQZF2_L-24" target="XtRkeNVS0C_kiaQZF2_L-30">
          <mxGeometry relative="1" as="geometry" />
        </mxCell>
        <mxCell id="XtRkeNVS0C_kiaQZF2_L-37" style="edgeStyle=none;curved=1;rounded=0;orthogonalLoop=1;jettySize=auto;html=1;entryX=0.5;entryY=0;entryDx=0;entryDy=0;fontSize=12;startSize=8;endSize=8;" edge="1" parent="1" source="XtRkeNVS0C_kiaQZF2_L-24" target="XtRkeNVS0C_kiaQZF2_L-26">
          <mxGeometry relative="1" as="geometry" />
        </mxCell>
        <mxCell id="XtRkeNVS0C_kiaQZF2_L-38" style="edgeStyle=none;curved=1;rounded=0;orthogonalLoop=1;jettySize=auto;html=1;entryX=0.5;entryY=0;entryDx=0;entryDy=0;fontSize=12;startSize=8;endSize=8;" edge="1" parent="1" source="XtRkeNVS0C_kiaQZF2_L-24" target="XtRkeNVS0C_kiaQZF2_L-25">
          <mxGeometry relative="1" as="geometry" />
        </mxCell>
        <mxCell id="XtRkeNVS0C_kiaQZF2_L-39" style="edgeStyle=none;curved=1;rounded=0;orthogonalLoop=1;jettySize=auto;html=1;entryX=0.5;entryY=0;entryDx=0;entryDy=0;fontSize=12;startSize=8;endSize=8;" edge="1" parent="1" source="XtRkeNVS0C_kiaQZF2_L-24" target="XtRkeNVS0C_kiaQZF2_L-27">
          <mxGeometry relative="1" as="geometry" />
        </mxCell>
        <mxCell id="XtRkeNVS0C_kiaQZF2_L-40" style="edgeStyle=none;curved=1;rounded=0;orthogonalLoop=1;jettySize=auto;html=1;fontSize=12;startSize=8;endSize=8;" edge="1" parent="1" source="XtRkeNVS0C_kiaQZF2_L-24" target="XtRkeNVS0C_kiaQZF2_L-33">
          <mxGeometry relative="1" as="geometry" />
        </mxCell>
        <mxCell id="XtRkeNVS0C_kiaQZF2_L-41" style="edgeStyle=none;curved=1;rounded=0;orthogonalLoop=1;jettySize=auto;html=1;fontSize=12;startSize=8;endSize=8;" edge="1" parent="1" source="XtRkeNVS0C_kiaQZF2_L-24" target="XtRkeNVS0C_kiaQZF2_L-32">
          <mxGeometry relative="1" as="geometry" />
        </mxCell>
        <mxCell id="XtRkeNVS0C_kiaQZF2_L-42" style="edgeStyle=none;curved=1;rounded=0;orthogonalLoop=1;jettySize=auto;html=1;fontSize=12;startSize=8;endSize=8;" edge="1" parent="1" source="XtRkeNVS0C_kiaQZF2_L-24" target="XtRkeNVS0C_kiaQZF2_L-31">
          <mxGeometry relative="1" as="geometry" />
        </mxCell>
        <mxCell id="XtRkeNVS0C_kiaQZF2_L-24" value="성적" style="rounded=1;arcSize=10;whiteSpace=wrap;html=1;align=center;" vertex="1" parent="1">
          <mxGeometry x="958" y="-516" width="159" height="74" as="geometry" />
        </mxCell>
        <mxCell id="XtRkeNVS0C_kiaQZF2_L-25" value="학번" style="ellipse;whiteSpace=wrap;html=1;align=center;fontStyle=4;" vertex="1" parent="1">
          <mxGeometry x="542" y="-179" width="100" height="40" as="geometry" />
        </mxCell>
        <mxCell id="XtRkeNVS0C_kiaQZF2_L-26" value="국어" style="ellipse;whiteSpace=wrap;html=1;align=center;" vertex="1" parent="1">
          <mxGeometry x="654" y="-179" width="100" height="40" as="geometry" />
        </mxCell>
        <mxCell id="XtRkeNVS0C_kiaQZF2_L-27" value="도덕" style="ellipse;whiteSpace=wrap;html=1;align=center;" vertex="1" parent="1">
          <mxGeometry x="1094" y="-179" width="100" height="40" as="geometry" />
        </mxCell>
        <mxCell id="XtRkeNVS0C_kiaQZF2_L-28" value="역사" style="ellipse;whiteSpace=wrap;html=1;align=center;" vertex="1" parent="1">
          <mxGeometry x="982" y="-179" width="100" height="40" as="geometry" />
        </mxCell>
        <mxCell id="XtRkeNVS0C_kiaQZF2_L-29" value="수학" style="ellipse;whiteSpace=wrap;html=1;align=center;" vertex="1" parent="1">
          <mxGeometry x="873" y="-179" width="100" height="40" as="geometry" />
        </mxCell>
        <mxCell id="XtRkeNVS0C_kiaQZF2_L-30" value="영어" style="ellipse;whiteSpace=wrap;html=1;align=center;" vertex="1" parent="1">
          <mxGeometry x="761" y="-179" width="100" height="40" as="geometry" />
        </mxCell>
        <mxCell id="XtRkeNVS0C_kiaQZF2_L-31" value="미술" style="ellipse;whiteSpace=wrap;html=1;align=center;" vertex="1" parent="1">
          <mxGeometry x="1420" y="-179" width="100" height="40" as="geometry" />
        </mxCell>
        <mxCell id="XtRkeNVS0C_kiaQZF2_L-32" value="음악" style="ellipse;whiteSpace=wrap;html=1;align=center;" vertex="1" parent="1">
          <mxGeometry x="1308" y="-179" width="100" height="40" as="geometry" />
        </mxCell>
        <mxCell id="XtRkeNVS0C_kiaQZF2_L-33" value="과학" style="ellipse;whiteSpace=wrap;html=1;align=center;" vertex="1" parent="1">
          <mxGeometry x="1199" y="-179" width="100" height="40" as="geometry" />
        </mxCell>
      </root>
    </mxGraphModel>
  </diagram>
</mxfile>
